<svg data-icon="notify" viewBox="32 29 69 76" version="1.1" xmlns="http://www.w3.org/2000/svg" xmlns:xlink="http://www.w3.org/1999/xlink"><path d="M54.9122908,35.7479442 C52.9434589,31.7491635 48.830114,29 44.0747055,29 C37.4045636,29 32,34.4100436 32,41.0836707 L32,61.4605282 C32,68.1378494 37.4060298,73.5441989 44.0747055,73.5441989 C50.7448475,73.5441989 56.1494111,68.1341552 56.1494111,61.4605282 L56.1494111,55.8384411 C58.5128171,54.3777562 63.2557884,51.8416697 67.5840016,51.924645 C70.8216862,51.8083296 74.2210949,53.4059155 75.9837968,56.8386495 C77.5821204,60.1583742 77.7337541,69.4746614 77.7337541,69.4746614 L77.9123574,80.4010751 C77.889767,80.6973525 77.878264,80.9965735 77.878264,81.2983147 L77.7337541,92.3585214 C77.7337541,98.7537599 83.2242448,103.93857 89.6029781,103.93857 C95.9831139,103.93857 100.833191,98.7561036 100.833191,92.3585214 L100.977701,80.948885 C100.977701,80.3233665 100.928297,79.7102088 100.833191,79.1130615 L100.833191,51.4952637 C100.833191,41.830923 89.716571,29.9511867 77.7337541,29.0312427 C65.1374746,28.5729322 57.853232,33.2692792 54.9122908,35.7479442 Z M43.9820359,104 C50.5995316,104 55.9640719,98.6199963 55.9640719,91.9834254 C55.9640719,85.3468545 50.5995316,79.9668508 43.9820359,79.9668508 C37.3645402,79.9668508 32,85.3468545 32,91.9834254 C32,98.6199963 37.3645402,104 43.9820359,104 Z" id="Combined-Shape" stroke="none" fill="currentColor" fill-rule="evenodd"/></svg>
